<svg width="17" height="18" viewBox="0 0 17 18" fill="none" xmlns="http://www.w3.org/2000/svg">
<g clip-path="url(#clip0_2047_297)">
<path d="M6.64742 9.36237C6.29867 9.24612 6.29867 8.75364 6.64742 8.63739L8.69447 7.95574C9.14447 7.8057 9.55333 7.55291 9.88866 7.2174C10.224 6.8819 10.4765 6.4729 10.6263 6.02282L11.308 3.97682C11.4242 3.62807 11.9167 3.62807 12.033 3.97682L12.7146 6.02388C12.8646 6.47387 13.1174 6.88273 13.4529 7.21806C13.7885 7.55338 14.1975 7.80595 14.6475 7.95574L16.6935 8.63739C16.7699 8.66245 16.8364 8.71099 16.8835 8.77609C16.9307 8.84118 16.9561 8.9195 16.9561 8.99988C16.9561 9.08025 16.9307 9.15857 16.8835 9.22367C16.8364 9.28876 16.7699 9.3373 16.6935 9.36237L14.6465 10.044C14.1966 10.1939 13.7878 10.4466 13.4525 10.7819C13.1172 11.1172 12.8645 11.526 12.7146 11.9759L12.033 14.0229C12.0079 14.0993 11.9594 14.1658 11.8943 14.2129C11.8292 14.2601 11.7508 14.2855 11.6705 14.2855C11.5901 14.2855 11.5118 14.2601 11.4467 14.2129C11.3816 14.1658 11.333 14.0993 11.308 14.0229L10.6263 11.9759C10.4764 11.526 10.2238 11.1172 9.88846 10.7819C9.55315 10.4466 9.14436 10.1939 8.69447 10.044L6.64742 9.36237ZM1.2587 13.4449C1.21294 13.4297 1.17311 13.4005 1.14488 13.3614C1.11665 13.3223 1.10146 13.2754 1.10146 13.2272C1.10146 13.1789 1.11665 13.132 1.14488 13.0929C1.17311 13.0538 1.21294 13.0246 1.2587 13.0094L2.48673 12.6005C3.03416 12.4176 3.46323 11.9886 3.64606 11.4411L4.05504 10.2131C4.0702 10.1673 4.09939 10.1275 4.13847 10.0993C4.17755 10.0711 4.22454 10.0559 4.27275 10.0559C4.32096 10.0559 4.36794 10.0711 4.40702 10.0993C4.44611 10.1275 4.4753 10.1673 4.49045 10.2131L4.89944 11.4411C4.98939 11.7111 5.14099 11.9564 5.34222 12.1577C5.54345 12.3589 5.78878 12.5105 6.05877 12.6005L7.28679 13.0094C7.33256 13.0246 7.37239 13.0538 7.40061 13.0929C7.42884 13.132 7.44403 13.1789 7.44403 13.2272C7.44403 13.2754 7.42884 13.3223 7.40061 13.3614C7.37239 13.4005 7.33256 13.4297 7.28679 13.4449L6.05877 13.8538C5.78878 13.9438 5.54345 14.0954 5.34222 14.2966C5.14099 14.4979 4.98939 14.7432 4.89944 15.0132L4.49045 16.2412C4.4753 16.287 4.44611 16.3268 4.40702 16.355C4.36794 16.3832 4.32096 16.3984 4.27275 16.3984C4.22454 16.3984 4.17755 16.3832 4.13847 16.355C4.09939 16.3268 4.0702 16.287 4.05504 16.2412L3.64606 15.0132C3.5561 14.7432 3.4045 14.4979 3.20328 14.2966C3.00205 14.0954 2.75672 13.9438 2.48673 13.8538L1.2587 13.4449ZM0.1501 5.97421C0.120009 5.96377 0.0939154 5.94423 0.0754483 5.91828C0.0569811 5.89233 0.0470576 5.86127 0.0470576 5.82942C0.0470576 5.79757 0.0569811 5.76652 0.0754483 5.74057C0.0939154 5.71462 0.120009 5.69507 0.1501 5.68464L0.968077 5.41198C1.33374 5.29045 1.62013 5.00405 1.74167 4.63839L2.01433 3.82041C2.02476 3.79032 2.04431 3.76423 2.07026 3.74576C2.09621 3.72729 2.12726 3.71737 2.15911 3.71737C2.19096 3.71737 2.22202 3.72729 2.24797 3.74576C2.27391 3.76423 2.29346 3.79032 2.3039 3.82041L2.57655 4.63839C2.6365 4.81859 2.73763 4.98233 2.87192 5.11662C3.0062 5.2509 3.16995 5.35203 3.35015 5.41198L4.16812 5.68464C4.19821 5.69507 4.22431 5.71462 4.24277 5.74057C4.26124 5.76652 4.27117 5.79757 4.27117 5.82942C4.27117 5.86127 4.26124 5.89233 4.24277 5.91828C4.22431 5.94423 4.19821 5.96377 4.16812 5.97421L3.35015 6.24687C3.16995 6.30681 3.0062 6.40794 2.87192 6.54223C2.73763 6.67651 2.6365 6.84026 2.57655 7.02046L2.3039 7.83738C2.29346 7.86747 2.27391 7.89356 2.24797 7.91203C2.22202 7.9305 2.19096 7.94042 2.15911 7.94042C2.12726 7.94042 2.09621 7.9305 2.07026 7.91203C2.04431 7.89356 2.02476 7.86747 2.01433 7.83738L1.74167 7.0194C1.62013 6.65374 1.33374 6.36734 0.968077 6.24581L0.151157 5.97421L0.1501 5.97421Z" fill="white"/>
</g>
<defs>
<clipPath id="clip0_2047_297">
<rect width="16.9091" height="16.9091" fill="white" transform="translate(0.0454712 17.4546) rotate(-90)"/>
</clipPath>
</defs>
</svg>
